<svg version="1.1" xmlns="http://www.w3.org/2000/svg" xmlns:xlink="http://www.w3.org/1999/xlink" width="30rem" height="30rem" viewBox="0,0,256,256">
<g fill="none" fill-rule="nonzero" stroke="none" stroke-width="1" stroke-linecap="butt" stroke-linejoin="miter" stroke-miterlimit="10" stroke-dasharray="" stroke-dashoffset="0" font-family="none" font-weight="none" font-size="none" text-anchor="none" style="mix-blend-mode: normal">
<g transform="scale(0.5,0.5)">
<path d="M395.6,225.8c-65.1,0 -130.3,0 -195.4,0c11.6,-11.6 23.2,-23.2 34.8,-34.8c26.8,-26.8 -14.9,-68.2 -41.8,-41.3c-28.3,28.3 -56.6,56.6 -84.9,84.9c-11.4,11.4 -11.1,30.3 0.2,41.5c28.3,28.3 56.6,56.6 84.9,84.9c26.8,26.8 68.2,-14.9 41.3,-41.8c-11.5,-11.5 -23.1,-23.1 -34.6,-34.6c65,0 130,0 195,0c38,0 38.3,-58.8 0.5,-58.8z" fill="black"></path></g></g></svg>